<?xml version="1.0" encoding="utf-8"?>
<!-- Generator: Adobe Illustrator 22.0.0, SVG Export Plug-In . SVG Version: 6.00 Build 0)  -->
<svg version="1.1" id="Isolation_Mode" xmlns="http://www.w3.org/2000/svg" xmlns:xlink="http://www.w3.org/1999/xlink" x="0px"
	 y="0px" viewBox="0 0 67 73.5" style="enable-background:new 0 0 67 73.5;" xml:space="preserve">
<style type="text/css">
	.st0{fill:#C9C9C9;}
	.st1{fill:#ED145B;}
</style>
<path class="st0" d="M21.3,42.1c-4.2,0-7.8-2.2-9.1-5.5c-1.1-2.9-1.5-5.3-1.5-8.6c0-6.1,5.2-20.2,5.7-21.8v0c0,0,0,0,0,0
	c0,0,0,0,0,0c0,0,0,0,0,0h0c0,0,0,0,0-0.1c0.3-0.8,1.2-1.1,1.9-0.8c0.8,0.3,1.1,1.2,0.9,1.9c0,0,0,0,0,0c0,0.2-1,3.5,3.6,12
	c1.4,2.7,3.3,5.6,5.4,8.7c0.9,1.3,2.5,4.2,2.5,6.3C30.8,38.6,26.6,42.1,21.3,42.1 M17.1,13.5c-1.6,4.8-3.4,11.1-3.4,14.4
	c0,3,0.3,5,1.3,7.6c0.8,2.1,3.4,3.6,6.3,3.6c3.6,0,6.5-2.2,6.5-4.8c0-0.9-0.9-3-2-4.6c-2.3-3.2-4.1-6.2-5.6-9
	C18.7,17.8,17.7,15.5,17.1,13.5"/>
<path class="st1" d="M23,52.4c-0.9-1.3-1.6-2.4-2.1-3.3c-1.9-3.6-1.4-5-1.4-5s-2.1,5.7-2.1,8c0,1.2,0.1,2,0.5,3
	c0.4,1,1.5,1.7,2.9,1.7c1.7,0,3-1.1,3-2.4C23.8,53.9,23.4,53,23,52.4"/>
<path class="st0" d="M47.4,68.2L47.4,68.2c-0.4,0-0.8,0-1.2-0.1c-13.3-2.8-18.9-12.2-21-17.6c-0.9-2.3-0.4-4.9,1.4-6.6
	c1.2-1.2,2.7-1.8,4.3-1.8c2.2,0,4.3,1.2,5.4,3.2c2.1,3.8,6,8.9,13.3,11.7c1.8,0.7,3.1,2.2,3.6,4.2c0.4,1.9-0.2,3.9-1.6,5.3
	C50.5,67.6,49,68.2,47.4,68.2 M30.9,45.1c-0.8,0-1.6,0.3-2.2,0.9c-0.9,0.9-1.2,2.2-0.7,3.4c1.9,4.8,6.9,13.2,18.8,15.8
	c0.9,0.2,1.9-0.1,2.6-0.8c0.7-0.7,1-1.7,0.8-2.6c-0.2-0.9-0.8-1.7-1.7-2C40.4,56.7,36,51,33.6,46.7C33.1,45.7,32.1,45.1,30.9,45.1"
	/>
</svg>
