<?xml version="1.0" encoding="utf-8"?>
<!-- Generator: Adobe Illustrator 22.0.0, SVG Export Plug-In . SVG Version: 6.00 Build 0)  -->
<svg version="1.1" id="Isolation_Mode" xmlns="http://www.w3.org/2000/svg" xmlns:xlink="http://www.w3.org/1999/xlink" x="0px"
	 y="0px" viewBox="0 0 57 77.8" style="enable-background:new 0 0 57 77.8;" xml:space="preserve">
<style type="text/css">
	.st0{fill:#C9C9C9;}
	.st1{fill:#ED145B;}
</style>
<path class="st0" d="M50,60.5c0,5.2-4.3,9.5-9.5,9.5h-24C11.3,70,7,65.7,7,60.5v-44C7,11.3,11.3,7,16.5,7h24c5.2,0,9.5,4.3,9.5,9.5
	V60.5z M47,16.5c0-3.6-2.9-6.5-6.5-6.5h-24c-3.6,0-6.5,2.9-6.5,6.5v44c0,3.6,2.9,6.5,6.5,6.5h24c3.6,0,6.5-2.9,6.5-6.5V16.5z"/>
<path class="st0" d="M50,59.5c0,0.8-0.7,1.5-1.5,1.5h-40C7.7,61,7,60.3,7,59.5v-43C7,15.7,7.7,15,8.5,15h40c0.8,0,1.5,0.7,1.5,1.5
	V59.5z M10,58h37V18H10V58z"/>
<path class="st1" d="M30.9,12.7c0,1.1-0.9,2-2,2s-2-0.9-2-2s0.9-2,2-2S30.9,11.6,30.9,12.7"/>
<path class="st1" d="M31.6,65h-5c-0.8,0-1.5-0.7-1.5-1.5s0.7-1.5,1.5-1.5h5c0.8,0,1.5,0.7,1.5,1.5S32.4,65,31.6,65"/>
<path class="st1" d="M31.5,46L31.5,46c-0.8,0-1.5-0.9-1.5-1.7c0-7.5-4.6-8.3-5.1-8.4c-0.8-0.1-1.4-0.9-1.4-1.7
	c0.1-0.8,0.8-1.5,1.6-1.4c0.1,0,7.8,0.9,7.8,11.4C33,45.1,32.3,46,31.5,46"/>
<path class="st1" d="M38.4,45L38.4,45c-0.8,0-1.5-0.7-1.5-1.6c0-13.3-8.9-14.2-9-14.2c-0.8-0.1-1.4-0.8-1.4-1.6
	c0.1-0.8,0.8-1.5,1.6-1.4c0.1,0,11.8,1.1,11.7,17.2C39.9,44.3,39.2,45,38.4,45"/>
</svg>
