<?xml version="1.0" encoding="utf-8"?>
<!-- Generator: Adobe Illustrator 22.0.0, SVG Export Plug-In . SVG Version: 6.00 Build 0)  -->
<svg version="1.1" id="Isolation_Mode" xmlns="http://www.w3.org/2000/svg" xmlns:xlink="http://www.w3.org/1999/xlink" x="0px"
	 y="0px" viewBox="0 0 63.6 53.4" enable-background="new 0 0 63.6 53.4" xml:space="preserve">
<path fill="#C9C9C9" d="M42.8,8.7c0,0.8-0.7,1.5-1.5,1.5h-19c-0.8,0-1.5-0.7-1.5-1.5v-7c0-0.8,0.7-1.5,1.5-1.5h19
	c0.8,0,1.5,0.7,1.5,1.5V8.7z M23.8,7.2h16v-4h-16V7.2z"/>
<path fill="#C9C9C9" d="M63.8,43.7c0,5.2-4.3,9.5-9.5,9.5h-44c-5.2,0-9.5-4.3-9.5-9.5v-27c0-5.2,4.3-9.5,9.5-9.5h44
	c5.2,0,9.5,4.3,9.5,9.5V43.7z M60.8,16.7c0-3.6-2.9-6.5-6.5-6.5h-44c-3.6,0-6.5,2.9-6.5,6.5v27c0,3.6,2.9,6.5,6.5,6.5h44
	c3.6,0,6.5-2.9,6.5-6.5V16.7z"/>
<path fill="#ED145B" d="M31.8,43.8c-7.1,0-12.9-5.8-12.9-12.9c0-7.1,5.8-12.9,12.9-12.9c7.1,0,12.9,5.8,12.9,12.9
	C44.6,38.1,38.9,43.8,31.8,43.8 M31.8,21.1c-5.4,0-9.9,4.4-9.9,9.9c0,5.4,4.4,9.9,9.9,9.9c5.4,0,9.9-4.4,9.9-9.9
	C41.6,25.5,37.2,21.1,31.8,21.1"/>
<path fill="#ED145B" d="M13.9,17c0,1.5-1.2,2.8-2.8,2.8c-1.5,0-2.8-1.2-2.8-2.8c0-1.5,1.2-2.8,2.8-2.8C12.7,14.3,13.9,15.5,13.9,17"
	/>
<path fill="#C9C9C9" d="M55.3,52.7c-0.8,0-1.5-0.7-1.5-1.5v-47h-5v4c0,0.8-0.7,1.5-1.5,1.5c-0.8,0-1.5-0.7-1.5-1.5V2.7
	c0-0.8,0.2-1.5,1.1-1.5h8c0.8,0,1.9,0.7,1.9,1.5v48.5C56.8,52,56.1,52.7,55.3,52.7"/>
</svg>
