<?xml version="1.0" encoding="utf-8"?>
<!-- Generator: Adobe Illustrator 22.0.0, SVG Export Plug-In . SVG Version: 6.00 Build 0)  -->
<svg version="1.1" id="Isolation_Mode" xmlns="http://www.w3.org/2000/svg" xmlns:xlink="http://www.w3.org/1999/xlink" x="0px"
	 y="0px" viewBox="0 0 82 76" style="enable-background:new 0 0 82 76;" xml:space="preserve">
<style type="text/css">
	.st0{fill:#C9C9C9;}
	.st1{fill:#ED145B;}
</style>
<path class="st0" d="M58.7,49H22.2c-0.7,0-1.3-0.5-1.5-1.1l-4.9-20c-0.1-0.4,0-0.9,0.3-1.3c0.3-0.4,0.7-0.6,1.2-0.6h11.2
	c0.8,0,1.5,0.7,1.5,1.5c0,0.8-0.7,1.5-1.5,1.5h-9.3l4.2,17h34.4l8.2-17H55.6c-0.8,0-1.5-0.7-1.5-1.5c0-0.8,0.7-1.5,1.5-1.5h12.7
	c0.5,0,1,0.3,1.3,0.7c0.3,0.4,0.3,1,0.1,1.4l-9.6,20C59.8,48.7,59.3,49,58.7,49"/>
<path class="st0" d="M68.1,60h-3.5c-0.8,0-1.5-0.7-1.5-1.5c0-0.8,0.7-1.5,1.5-1.5H67v-8H24l1.4,8h2.2c0.8,0,1.5,0.7,1.5,1.5
	c0,0.8-0.7,1.5-1.5,1.5h-3.4c-0.7,0-1.4-0.5-1.5-1.2l-1.9-11c-0.1-0.4,0-0.9,0.3-1.2c0.3-0.3,0.7-0.5,1.1-0.5h45.8
	c0.8,0,1.9,0.7,1.9,1.5v11C70,59.3,68.9,60,68.1,60"/>
<path class="st0" d="M50.6,60h-10c-0.8,0-1.5-0.7-1.5-1.5c0-0.8,0.7-1.5,1.5-1.5h10c0.8,0,1.5,0.7,1.5,1.5
	C52.1,59.3,51.4,60,50.6,60"/>
<path class="st0" d="M57.5,66.1c-4,0-7.3-3.3-7.3-7.3s3.3-7.3,7.3-7.3c4,0,7.3,3.3,7.3,7.3S61.5,66.1,57.5,66.1 M57.5,54.6
	c-2.3,0-4.3,1.9-4.3,4.3c0,2.4,1.9,4.3,4.3,4.3c2.3,0,4.3-1.9,4.3-4.3C61.7,56.5,59.8,54.6,57.5,54.6"/>
<path class="st0" d="M34.4,66.1c-4,0-7.3-3.3-7.3-7.3s3.3-7.3,7.3-7.3s7.3,3.3,7.3,7.3S38.4,66.1,34.4,66.1 M34.4,54.6
	c-2.4,0-4.3,1.9-4.3,4.3c0,2.4,1.9,4.3,4.3,4.3c2.3,0,4.3-1.9,4.3-4.3C38.6,56.5,36.7,54.6,34.4,54.6"/>
<path class="st0" d="M24.1,59.4c-0.7,0-1.3-0.5-1.5-1.1l-9.6-39.5c0-0.1,0-0.2,0-0.4c0-0.7-0.7-1.2-1.5-1.2c-0.8,0-1.5,0.7-1.5,1.6
	c0,0.5,0.3,1,0.7,1.3c0.7,0.5,0.9,1.4,0.4,2.1c-0.5,0.7-1.4,0.9-2.1,0.4c-1.3-0.9-2.1-2.3-2.1-3.8c0-2.5,2-4.6,4.5-4.6
	c2.4,0,4.4,1.8,4.5,4l9.6,39.3c0.2,0.8-0.3,1.6-1.1,1.8C24.4,59.4,24.3,59.4,24.1,59.4"/>
<path class="st1" d="M42.8,39.4L42.8,39.4c-1.4,0-2.7-0.7-3.5-1.9L32.6,27c-0.9-1.3-0.9-3.2,0-4.8c0.7-1.4,2-2.2,3.4-2.2H38v-9.3
	C38,9.3,39.1,8,40.4,8h6c0.4,0,2.6,0.1,2.6,2.7V20h0.7c1.4,0,2.7,0.8,3.4,2.3c0.8,1.6,0.8,3.5-0.2,4.8l-7,10.7
	C45.2,38.8,44,39.4,42.8,39.4 M35.9,23c-0.3,0-0.6,0.3-0.7,0.6c-0.3,0.6-0.4,1.4-0.1,1.8l6.7,10.4c0.3,0.4,0.7,0.5,1,0.5
	c0.3,0,0.5-0.1,0.7-0.3l7-10.7c0.3-0.4,0.3-1.1,0-1.7C50.3,23.3,50,23,49.7,23H46V11h-5.4c0,0,0.4,0,0.4,0v12H35.9z"/>
</svg>
