<?xml version="1.0" encoding="utf-8"?>
<!-- Generator: Adobe Illustrator 22.0.0, SVG Export Plug-In . SVG Version: 6.00 Build 0)  -->
<svg version="1.1" id="Isolation_Mode" xmlns="http://www.w3.org/2000/svg" xmlns:xlink="http://www.w3.org/1999/xlink" x="0px"
	 y="0px" viewBox="0 0 62.9 63.8" enable-background="new 0 0 62.9 63.8" xml:space="preserve">
<path fill="#C9C9C9" d="M38.1,45.1c-0.1,0-0.2,0-0.2,0c-0.6-0.1-1-0.5-1.2-1l-4.1-13.1l-13.1-4.1c-0.5-0.2-0.9-0.6-1-1.2
	c-0.1-0.6,0.1-1.1,0.6-1.5l11.2-7.9L30.1,2.6c0-0.6,0.3-1.1,0.8-1.4C31.5,1,32.1,1,32.5,1.3l11,8.2l13-4.4C57,5,57.6,5.1,58,5.5
	c0.4,0.4,0.5,1,0.4,1.5L54,20l8.2,11c0.3,0.5,0.4,1.1,0.1,1.6c-0.3,0.5-0.8,0.8-1.4,0.8l-13.7-0.2l-7.9,11.2
	C39.1,44.8,38.6,45.1,38.1,45.1 M23.3,24.9l10.9,3.4c0.5,0.1,0.8,0.5,1,1l3.4,10.9l6.6-9.4c0.3-0.4,0.7-0.6,1.2-0.6L58,30.4
	l-6.9-9.2c-0.3-0.4-0.4-0.9-0.2-1.4L54.6,9l-10.9,3.7c-0.5,0.2-1,0.1-1.4-0.2l-9.2-6.9L33.3,17c0,0.5-0.2,1-0.6,1.2L23.3,24.9z"/>
<path fill="#C9C9C9" d="M3.9,63.3c-0.8,0-1.5-0.3-2.1-0.9c-1.2-1.2-1.2-3.1,0-4.2L23,36.9c1.2-1.2,3.1-1.2,4.2,0
	c1.2,1.2,1.2,3.1,0,4.2L6,62.4C5.4,63,4.7,63.3,3.9,63.3"/>
<path fill="#ED145B" d="M61.7,22.4c-1,1-2.7,1-3.8,0c-1-1-1-2.7,0-3.8c1-1,2.7-1,3.8,0C62.8,19.6,62.8,21.3,61.7,22.4"/>
<path fill="#ED145B" d="M44.3,4.9c-1,1-2.7,1-3.8,0c-1-1-1-2.7,0-3.8c1-1,2.7-1,3.8,0C45.3,2.1,45.3,3.8,44.3,4.9"/>
<path fill="#ED145B" d="M53.5,40.9c-1,1-2.7,1-3.8,0c-1-1-1-2.7,0-3.8c1-1,2.7-1,3.8,0C54.6,38.2,54.6,39.9,53.5,40.9"/>
<path fill="#ED145B" d="M26.8,14.1c-1,1-2.7,1-3.8,0c-1-1-1-2.7,0-3.8c1-1,2.7-1,3.8,0C27.8,11.4,27.8,13.1,26.8,14.1"/>
</svg>
