<?xml version="1.0" encoding="utf-8"?>
<!-- Generator: Adobe Illustrator 22.0.0, SVG Export Plug-In . SVG Version: 6.00 Build 0)  -->
<svg version="1.1" id="Isolation_Mode" xmlns="http://www.w3.org/2000/svg" xmlns:xlink="http://www.w3.org/1999/xlink" x="0px"
	 y="0px" viewBox="0 0 63.8 66.3" enable-background="new 0 0 63.8 66.3" xml:space="preserve">
<path fill="#C9C9C9" d="M64,39.9c0,5.2-4.3,9.5-9.5,9.5h-44c-5.2,0-9.5-4.3-9.5-9.5v-27c0-5.2,4.3-9.5,9.5-9.5h44
	c5.2,0,9.5,4.3,9.5,9.5V39.9z M61,12.9c0-3.6-2.9-6.5-6.5-6.5h-44C6.9,6.4,4,9.3,4,12.9v27c0,3.6,2.9,6.5,6.5,6.5h44
	c3.6,0,6.5-2.9,6.5-6.5V12.9z"/>
<path fill="#C9C9C9" d="M53.2,49.4H11.8c-6.1,0-10.7-4.9-10.7-11.5c0-0.8,0.7-1.5,1.5-1.5h59.8c0.8,0,1.5,0.7,1.5,1.5
	C63.9,44.5,59.3,49.4,53.2,49.4 M4.2,39.4c0.6,4.1,3.6,7,7.6,7h41.4c4,0,7-2.9,7.6-7H4.2z"/>
<path fill="#ED145B" d="M35.3,33.7c-0.4,0-0.8-0.1-1.1-0.4c-0.6-0.6-0.6-1.5,0-2.1l8.3-8.3c0.6-0.6,1.5-0.6,2.1,0
	c0.6,0.6,0.6,1.5,0,2.1l-8.3,8.3C36.1,33.5,35.7,33.7,35.3,33.7"/>
<path fill="#ED145B" d="M22.4,35.1c-0.4,0-0.8-0.1-1.1-0.4c-0.6-0.6-0.6-1.5,0-2.1l18.1-18.1c0.6-0.6,1.5-0.6,2.1,0
	c0.6,0.6,0.6,1.5,0,2.1L23.4,34.6C23.1,34.9,22.8,35.1,22.4,35.1"/>
<path fill="#C9C9C9" d="M32.5,57.9c-0.8,0-1.5-0.7-1.5-1.5v-8c0-0.8,0.7-1.5,1.5-1.5c0.8,0,1.5,0.7,1.5,1.5v8
	C34,57.2,33.3,57.9,32.5,57.9"/>
<path fill="#C9C9C9" d="M42,66.5c-0.8,0-1.5-0.7-1.5-1.5c0-3.6-3.7-6.5-8.2-6.5c-4.5,0-8.2,2.9-8.2,6.5c0,0.8-0.7,1.5-1.5,1.5
	c-0.8,0-1.5-0.7-1.5-1.5c0-5.2,5-9.5,11.2-9.5c6.2,0,11.2,4.2,11.2,9.5C43.5,65.8,42.8,66.5,42,66.5"/>
</svg>
