<?xml version="1.0" encoding="utf-8"?>
<!-- Generator: Adobe Illustrator 22.0.0, SVG Export Plug-In . SVG Version: 6.00 Build 0)  -->
<svg version="1.1" id="Isolation_Mode" xmlns="http://www.w3.org/2000/svg" xmlns:xlink="http://www.w3.org/1999/xlink" x="0px"
	 y="0px" viewBox="0 0 55.2 62.8" enable-background="new 0 0 55.2 62.8" xml:space="preserve">
<path fill="#C9C9C9" d="M55,53.4c0,5.2-4.3,9.5-9.5,9.5h-36c-5.2,0-9.5-4.3-9.5-9.5v-44c0-5.2,4.3-9.5,9.5-9.5h36
	c5.2,0,9.5,4.3,9.5,9.5V53.4z M52,9.4c0-3.6-2.9-6.5-6.5-6.5h-36C5.9,2.9,3,5.8,3,9.4v44c0,3.6,2.9,6.5,6.5,6.5h36
	c3.6,0,6.5-2.9,6.5-6.5V9.4z"/>
<path fill="#C9C9C9" d="M4.6,19.9h-2c-0.8,0-1.5-0.7-1.5-1.5c0-0.8,0.7-1.5,1.5-1.5h2c0.8,0,1.5,0.7,1.5,1.5
	C6.1,19.2,5.4,19.9,4.6,19.9"/>
<path fill="#C9C9C9" d="M51.6,19.9h-47c-0.8,0-1.5-0.7-1.5-1.5c0-0.8,0.7-1.5,1.5-1.5h47c0.8,0,1.5,0.7,1.5,1.5
	C53.1,19.2,52.4,19.9,51.6,19.9"/>
<path fill="#C9C9C9" d="M53.6,19.9h-2c-0.8,0-1.5-0.7-1.5-1.5c0-0.8,0.7-1.5,1.5-1.5h2c0.8,0,1.5,0.7,1.5,1.5
	C55.1,19.2,54.4,19.9,53.6,19.9"/>
<path fill="#ED145B" d="M16.8,11c0,1.4-1.1,2.6-2.6,2.6c-1.4,0-2.6-1.1-2.6-2.6c0-1.4,1.1-2.6,2.6-2.6C15.7,8.5,16.8,9.6,16.8,11"/>
<path fill="#ED145B" d="M26,11c0,1.4-1.1,2.6-2.6,2.6c-1.4,0-2.6-1.1-2.6-2.6c0-1.4,1.1-2.6,2.6-2.6C24.9,8.5,26,9.6,26,11"/>
<path fill="#ED145B" d="M34.2,11c0,1.4-1.1,2.6-2.6,2.6c-1.4,0-2.6-1.1-2.6-2.6c0-1.4,1.1-2.6,2.6-2.6C33,8.5,34.2,9.6,34.2,11"/>
<path fill="#ED145B" d="M37.5,45.3c-0.5,0-1-0.2-1.2-0.7c-0.5-0.7-0.3-1.6,0.4-2.1l7.7-5.2l-7.5-3.8c-0.7-0.4-1-1.3-0.7-2
	c0.4-0.7,1.3-1,2-0.7l7.7,4c0.9,0.5,1.5,1.3,1.5,2.3c0.1,1-0.4,1.9-1.1,2.5l-8,5.4C38.1,45.2,37.8,45.3,37.5,45.3"/>
<path fill="#ED145B" d="M20.3,49.3c-0.3,0-0.6-0.1-0.8-0.3l-7.9-5.4c-0.8-0.6-1.3-1.6-1.2-2.5c0.1-1,0.7-1.8,1.5-2.3l7.7-4
	c0.7-0.4,1.6-0.1,2,0.7c0.4,0.7,0.1,1.6-0.7,2l-7.5,3.8l7.7,5.2c0.7,0.5,0.9,1.4,0.4,2.1C21.2,49.1,20.8,49.3,20.3,49.3"/>
<path fill="#ED145B" d="M26,52.2c-0.1,0-0.3,0-0.4-0.1c-0.8-0.2-1.2-1.1-1-1.9l6.6-21.1c0.2-0.8,1.1-1.2,1.9-1
	c0.8,0.2,1.2,1.1,1,1.9l-6.6,21.1C27.2,51.8,26.6,52.2,26,52.2"/>
</svg>
