<?xml version="1.0" encoding="utf-8"?>
<!-- Generator: Adobe Illustrator 22.0.0, SVG Export Plug-In . SVG Version: 6.00 Build 0)  -->
<svg version="1.1" id="Warstwa_1" xmlns="http://www.w3.org/2000/svg" xmlns:xlink="http://www.w3.org/1999/xlink" x="0px" y="0px"
	 viewBox="0 0 72.4 50" style="enable-background:new 0 0 72.4 50;" xml:space="preserve">
<style type="text/css">
	.st0{enable-background:new    ;}
	.st1{fill:#ED145B;}
</style>
<g class="st0">
	<path class="st1" d="M4,32.4c0-3.3,0.5-6.6,1.5-9.7c1-3.1,2.7-6,4.9-8.7c2.3-2.7,5.2-5.1,8.8-7.2c3.6-2.1,7.9-3.9,13.1-5.3v8.2
		c-2.3,0.8-4.3,1.6-6.1,2.5c-1.7,0.8-3.2,1.7-4.3,2.7c-1.2,1-2,2-2.6,3.2c-0.6,1.2-0.9,2.5-0.9,4c0,1,0.3,1.8,0.8,2.4
		c0.6,0.6,1.3,1.2,2.1,1.8s1.8,1.1,2.8,1.7c1,0.6,1.9,1.3,2.8,2.3s1.6,2.1,2.1,3.4c0.6,1.4,0.8,3.1,0.8,5.2c0,3.5-1.1,6.2-3.2,8.1
		s-4.9,2.8-8.1,2.8c-4.5,0-8-1.5-10.6-4.6S4,37.8,4,32.4z M37,32.4c0-3.3,0.5-6.6,1.5-9.7c1-3.1,2.7-6,4.9-8.7
		c2.3-2.7,5.2-5.1,8.8-7.2c3.6-2.1,7.9-3.9,13.1-5.3v8.2c-2.3,0.8-4.3,1.6-6.1,2.5c-1.7,0.8-3.2,1.7-4.3,2.7c-1.2,1-2,2-2.6,3.2
		c-0.6,1.2-0.9,2.5-0.9,4c0,1,0.3,1.8,0.8,2.4c0.6,0.6,1.3,1.2,2.1,1.8c0.8,0.6,1.8,1.1,2.8,1.7c1,0.6,1.9,1.3,2.8,2.3
		c0.8,0.9,1.6,2.1,2.1,3.4c0.6,1.4,0.8,3.1,0.8,5.2c0,3.5-1.1,6.2-3.2,8.1s-4.9,2.8-8.1,2.8c-4.5,0-8-1.5-10.6-4.6S37,37.8,37,32.4z
		"/>
</g>
</svg>
